<svg id="Layer_1" data-name="Layer 1" xmlns="http://www.w3.org/2000/svg" viewBox="0 0 17.64 18"><defs><style>.cls-1{fill:#4285f4;}.cls-2{fill:#34a853;}.cls-3{fill:#fbbc05;}.cls-4{fill:#ea4335;}</style></defs><title>google-icon</title><g id="logo_googleg_48dp" data-name="logo googleg 48dp"><path id="Shape" class="cls-1" d="M31.64,23.2a10.341,10.341,0,0,0-.164-1.841H23v3.481h4.844a4.14,4.14,0,0,1-1.8,2.716V29.82h2.909A8.777,8.777,0,0,0,31.64,23.2Z" transform="translate(-14 -14)"/><path id="Shape-2" data-name="Shape" class="cls-2" d="M23,32a8.592,8.592,0,0,0,5.956-2.18l-2.909-2.258a5.43,5.43,0,0,1-8.084-2.851H14.957v2.332A9,9,0,0,0,23,32Z" transform="translate(-14 -14)"/><path id="Shape-3" data-name="Shape" class="cls-3" d="M17.964,24.71a5.321,5.321,0,0,1,0-3.42V18.958H14.957a9.011,9.011,0,0,0,0,8.084l3.007-2.332Z" transform="translate(-14 -14)"/><path id="Shape-4" data-name="Shape" class="cls-4" d="M23,17.58a4.862,4.862,0,0,1,3.44,1.346l2.581-2.581A8.649,8.649,0,0,0,23,14a9,9,0,0,0-8.043,4.958l3.007,2.332A5.364,5.364,0,0,1,23,17.58Z" transform="translate(-14 -14)"/></g></svg>