<svg width="320" height="320" xmlns="http://www.w3.org/2000/svg">
    <path d="M94.917 126.52a43.254 43.254 0 0 1-43.254 43.254A43.254 43.254 0 0 1 8.409 126.52a43.254 43.254 0 0 1 43.254-43.254 43.254 43.254 0 0 1 43.254 43.254" fill="#3983ed" opacity=".9"/>
    <path d="m54.43 101.828-4.525 10.365q-6.588-2.802-11.577 3.46-4.707 5.906-1.123 8.762 1.417 1.13 3.13.756 1.706-.443 5.937-4.54 6.334-6.091 10.12-8.418 3.786-2.328 8.088-1.99 4.333.298 8.428 3.562 6.144 4.895 6.269 12.656.156 7.722-6.527 16.11-12.112 15.2-26.24 8.77l6.42-11.045q6.328 3.047 12.384-4.553 2.322-2.914 2.898-5.739.538-2.855-1.234-4.267-2.757-2.197-6.815 1.845-11.098 10.858-17.253 12.199-6.162 1.27-11.754-3.186-5.67-4.518-5.858-11.879-.187-7.36 6.151-15.314 5.02-6.3 10.514-8.104 5.493-1.803 12.567.55z" fill="#fff" stroke-width="1.137" aria-label="s"/>
    <path d="M251.55 53.458a43.254 43.254 0 0 1-43.254 43.254 43.254 43.254 0 0 1-43.254-43.254 43.254 43.254 0 0 1 43.254-43.254 43.254 43.254 0 0 1 43.254 43.254" fill="#3983ed" opacity=".9"/>
    <path d="M235.39 47.167 213.267 34.46l-5.465 9.515 17.399 9.994-5.017 8.734-17.4-9.994-5.816 10.127 22.123 12.707-5.27 9.175-33.167-19.051 26.644-46.386 33.167 19.05z" fill="#fff"/>
    <path d="M91.519 164.75c-3.063-.035-5.352.838-6.325 2.72-1.164 2.251-1.023 5.883.334 8.57.721 1.43 4.673 5.755 10.71 11.718 14.722 14.539 26.077 29.444 32.424 42.563 6.418 13.265 7.213 31.726 7.421 35.92 0 0-.107 6.03-.876 9.434-.77 3.405-2.634 9.767-2.634 9.767-4.256 16.177-8.371 25.016 1.218 25.963h.002c2.196.217 14.037.217 26.126.094 12.088.123 23.93.123 26.126-.094h.002c9.59-.948 5.474-9.787 1.218-25.963 0 0-1.863-6.362-2.633-9.767-.77-3.405-.877-9.434-.877-9.434.209-4.194 1.003-22.655 7.422-35.92 6.347-13.12 17.702-28.024 32.423-42.563 6.037-5.963 9.99-10.287 10.71-11.717 1.357-2.688 1.499-6.32.335-8.571-.973-1.882-3.263-2.755-6.325-2.72-5.105.059-12.352 2.643-19.22 7.301-10.168 6.899-29.231 26.304-43.68 44.467-2.947 3.704-4.845 5.714-5.501 5.84-.656-.126-2.554-2.136-5.5-5.84-14.448-18.163-33.512-37.569-43.681-44.467-6.868-4.658-14.115-7.242-19.22-7.301z" fill="#3983ed" fill-opacity=".902" opacity=".9"/>
    <path d="M154.88 53.203a43.254 43.254 0 0 1-43.254 43.254 43.254 43.254 0 0 1-43.254-43.254 43.254 43.254 0 0 1 43.254-43.254 43.254 43.254 0 0 1 43.254 43.254" fill="#3983ed" opacity=".9"/>
    <path d="M111.14 65.279c-5.574-9.24-10.246-16.806-10.382-16.814-.136-.009-3.022 1.679-6.413 3.75s-6.393 3.785-6.672 3.81c-.603.052-6.485-9.216-6.088-9.592.983-.931 38.476-23.405 38.69-23.191.632.632 5.855 9.387 5.725 9.597-.08.128-3.048 1.978-6.598 4.112s-6.46 3.978-6.467 4.097c-.007.12 4.558 7.762 10.146 16.982 7.93 13.084 10.052 16.861 9.67 17.204-.611.55-10.095 6.314-10.89 6.62-.438.168-3.155-4.033-10.722-16.574z" fill="#fff" fill-rule="evenodd"/>
    <path d="M311.69 126.63a43.254 43.254 0 0 1-43.254 43.254 43.254 43.254 0 0 1-43.254-43.254 43.254 43.254 0 0 1 43.254-43.254 43.254 43.254 0 0 1 43.254 43.254" fill="#3983ed" opacity=".9"/>
    <path d="m247.408 139.378 21.339-34.283-29.042 25.516-6.144-6.993 35.616-31.293 11.417 12.994-15.838 24.966 27.094-12.154 11.44 13.02-35.616 31.293-7.382-8.402 29.042-25.516-36.905 16.567z" fill="#fff" stroke-width=".784" aria-label="M"/>
    <path d="M110.77 166.09c-1.428-2.195-1.601-4.082-.692-7.538.42-1.595.797-2.395 2.45-5.191 2.708-4.582 5.897-8.272 11.689-13.524 1.357-1.231 2.452-2.3 2.432-2.376-.02-.076-1.166-1.2-2.547-2.498-7.966-7.485-13.292-15.059-14.066-20-.385-2.46-.146-4.087.858-5.83 1.122-1.948 2.495-2.96 5.112-3.766 5.273-1.625 13.882-.679 24.06 2.644 1.601.522 3.043.922 3.205.888.176-.037.595-1.36 1.047-3.313 1.709-7.37 3.583-12.432 6.33-17.093 2.814-4.773 4.832-6.57 8.139-7.246 2.609-.533 5.206.385 7.527 2.661 1.635 1.605 4.144 5.673 5.555 9.009.792 1.872 1.938 5.526 2.997 9.556.944 3.588 1.75 6.544 1.792 6.568s2.348-.582 5.125-1.348c12.199-3.362 20.355-3.52 24.85-.48 3.16 2.137 4.085 5.402 2.818 9.94-.66 2.364-3.853 7.686-6.385 10.645-2.319 2.71-5.138 5.568-8.033 8.146-1.17 1.041-2.088 2.006-2.041 2.145.046.138.94 1.035 1.985 1.992 13.16 12.055 17.916 22.775 12.413 27.977-4.22 3.99-14.499 3.74-28.288-.684-1.545-.496-2.856-.89-2.913-.875-.057.015-.495 1.657-.972 3.65-1.94 8.083-3.269 11.708-6.036 16.452-2.221 3.808-3.271 5.052-5.441 6.447-4.447 2.857-9.346 1.045-13.17-4.87-2.457-3.8-4.318-8.675-6.24-16.343l-1.378-5.5-4.453 1.289c-11.8 3.415-20.256 3.697-25.131.836-1.486-.871-1.82-1.176-2.597-2.371zm49.052-10.025c1.275-.332 14.617-7.873 15.512-8.767.479-.478.764-5.755.674-12.478-.034-2.547-.065-4.96-.068-5.36-.006-.702-.095-.788-2.406-2.316-3.088-2.043-10.284-6.262-12.218-7.164l-1.497-.699-1.74.885c-2.83 1.438-8.47 4.636-11.475 6.508l-2.8 1.744-.124 2.791c-.241 5.42-.167 15.072.12 15.661.077.158 3.602 2.32 7.833 4.805 6.583 3.867 7.766 4.5 8.19 4.39z" fill="#3983ed" opacity=".9"/>
    <path d="m159.82 119.28-1.74.885c-2.83 1.438-8.47 4.636-11.475 6.508l-2.799 1.744-.125 2.79c-.24 5.42-.166 15.074.121 15.663.077.157 3.6 2.32 7.832 4.804 6.583 3.867 7.766 4.5 8.19 4.39 1.275-.333 14.617-7.872 15.512-8.767.478-.478.763-5.755.673-12.479-.034-2.547-.065-4.96-.068-5.36-.006-.703-.093-.787-2.404-2.315-3.088-2.043-10.285-6.263-12.22-7.164z" fill="#fff" fill-rule="evenodd"/>
</svg>
