<?xml version="1.0" encoding="UTF-8" standalone="no"?>
<svg
   xmlns:dc="http://purl.org/dc/elements/1.1/"
   xmlns:cc="http://creativecommons.org/ns#"
   xmlns:rdf="http://www.w3.org/1999/02/22-rdf-syntax-ns#"
   xmlns:svg="http://www.w3.org/2000/svg"
   xmlns="http://www.w3.org/2000/svg"
   xmlns:sodipodi="http://sodipodi.sourceforge.net/DTD/sodipodi-0.dtd"
   xmlns:inkscape="http://www.inkscape.org/namespaces/inkscape"
   inkscape:version="1.0 (4035a4fb49, 2020-05-01)"
   sodipodi:docname="logo-big.svg"
   viewBox="0 0 320 320"
   height="320"
   width="320"
   id="svg853"
   version="1.1">
  <metadata
     id="metadata859">
    <rdf:RDF>
      <cc:Work
         rdf:about="">
        <dc:format>image/svg+xml</dc:format>
        <dc:type
           rdf:resource="http://purl.org/dc/dcmitype/StillImage" />
        <dc:title></dc:title>
      </cc:Work>
    </rdf:RDF>
  </metadata>
  <defs
     id="defs857">
    <inkscape:path-effect
       only_selected="false"
       apply_with_weight="true"
       apply_no_weight="true"
       helper_size="0"
       steps="2"
       weight="33.333333"
       lpeversion="1"
       is_visible="true"
       id="path-effect897"
       effect="bspline" />
  </defs>
  <sodipodi:namedview
     inkscape:current-layer="g861"
     inkscape:window-maximized="1"
     inkscape:window-y="-8"
     inkscape:window-x="3832"
     inkscape:cy="162.46898"
     inkscape:cx="-305.04495"
     inkscape:zoom="0.65390625"
     showguides="true"
     showgrid="true"
     id="namedview855"
     inkscape:window-height="1027"
     inkscape:window-width="1920"
     inkscape:pageshadow="2"
     inkscape:pageopacity="0"
     guidetolerance="10"
     gridtolerance="10"
     objecttolerance="10"
     borderopacity="1"
     bordercolor="#666666"
     pagecolor="#ffffff" />
  <g
     id="g861"
     inkscape:label="Image"
     inkscape:groupmode="layer">
    <path
       style="opacity:0.9;fill:#000000;stroke:#000000;stroke-width:0"
       d=""
       id="path2293" />
    <g
       transform="matrix(0.94472923,0,0,0.94472923,7.8069056,8.8925066)"
       id="g2542">
      <path
         d="M 92.206093,124.50723 A 45.784462,45.784462 0 0 1 46.421631,170.29169 45.784462,45.784462 0 0 1 0.63716888,124.50723 45.784462,45.784462 0 0 1 46.421631,78.722771 45.784462,45.784462 0 0 1 92.206093,124.50723"
         style="opacity:0.9;fill:#3983ed;fill-opacity:1;stroke:#000000;stroke-width:0;stroke-miterlimit:4;stroke-dasharray:none"
         id="path921" />
      <g
         style="font-style:normal;font-variant:normal;font-weight:normal;font-stretch:normal;font-size:109.153px;line-height:1.65;font-family:'Franklin Gothic Demi';-inkscape-font-specification:'Franklin Gothic Demi';letter-spacing:0px;word-spacing:0px;fill:#ffffff;stroke-width:1.13701"
         id="text1498"
         transform="rotate(-51.451362)"
         aria-label="s">
        <path
           id="path2685"
           style="stroke-width:1.13701"
           d="m -46.180388,99.899714 -11.565528,3.091246 q -2.0253,-7.301738 -10.499581,-7.301738 -7.994604,0 -7.994604,4.850058 0,1.91871 1.439029,3.09125 1.492326,1.11924 7.67482,1.9187 9.220444,1.22584 13.644125,2.82476 4.423681,1.59893 6.981955,5.38304 2.61157,3.78411 2.61157,9.32704 0,8.31439 -6.342386,13.53753 -6.289089,5.22314 -17.641427,5.22314 -20.572782,0 -24.570084,-15.93591 l 13.377638,-1.97201 q 1.652218,7.24845 11.938609,7.24845 3.944005,0 6.66217,-1.38574 2.718166,-1.43902 2.718166,-3.83741 0,-3.73081 -6.022602,-4.42368 -16.308993,-2.0253 -21.478837,-6.23579 -5.116547,-4.26379 -5.116547,-11.83201 0,-7.674823 5.969304,-12.684775 5.969305,-5.009952 16.735372,-5.009952 8.527579,0 13.644125,3.357734 5.116547,3.357734 7.834713,10.766067 z" />
      </g>
    </g>
    <g
       transform="translate(0.4479132,-0.7646356)"
       id="g2601">
      <path
         d="M 154.4266,53.967857 A 43.253918,43.253918 0 0 1 111.17268,97.221775 43.253918,43.253918 0 0 1 67.918766,53.967857 43.253918,43.253918 0 0 1 111.17268,10.71394 43.253918,43.253918 0 0 1 154.4266,53.967857"
         style="opacity:0.9;fill:#3983ed;fill-opacity:1;stroke:#000000;stroke-width:0;stroke-miterlimit:4;stroke-dasharray:none"
         id="path921-8" />
      <path
         id="rect1547"
         style="opacity:0.9;fill:#ffffff;fill-opacity:1;stroke:#000000;stroke-width:0;stroke-miterlimit:4;stroke-dasharray:none"
         d="M 120.15207,23.75112 80.857247,47.644282 87.247086,57.916367 100.66519,49.758852 121.2518,83.698987 133.60339,76.205735 113.0094,42.252683 126.54376,34.023205 Z" />
    </g>
    <g
       transform="translate(0.0655954,-0.7646356)"
       id="g2606">
      <path
         d="M 251.4777,54.223251 A 43.253918,43.253918 0 0 1 208.22379,97.477169 43.253918,43.253918 0 0 1 164.96987,54.223251 43.253918,43.253918 0 0 1 208.22379,10.969334 43.253918,43.253918 0 0 1 251.4777,54.223251"
         style="opacity:0.9;fill:#3983ed;fill-opacity:1;stroke:#000000;stroke-width:0;stroke-miterlimit:4;stroke-dasharray:none"
         id="path921-0" />
      <g
         style="font-style:normal;font-variant:normal;font-weight:normal;font-stretch:normal;font-size:80.2606px;line-height:1.65;font-family:'Franklin Gothic Demi';-inkscape-font-specification:'Franklin Gothic Demi';letter-spacing:0px;word-spacing:0px;fill:#ffffff;stroke-width:0.836048"
         id="text1498-9"
         transform="rotate(34.873021)"
         aria-label="E">
        <path
           id="path2690"
           style="stroke-width:0.836048"
           d="m 221.91879,-91.66986 h -25.51252 v 10.973128 h 20.06515 v 10.071765 h -20.06515 v 11.678544 h 25.51252 v 10.581231 H 183.6696 v -53.493998 h 38.24919 z" />
      </g>
    </g>
    <g
       transform="matrix(0.94472923,0,0,0.94472923,10.48313,9.6571422)"
       id="g2556">
      <path
         d="m 318.82737,123.81549 a 45.784462,45.784462 0 0 1 -45.78446,45.78446 45.784462,45.784462 0 0 1 -45.78446,-45.78446 45.784462,45.784462 0 0 1 45.78446,-45.784461 45.784462,45.784462 0 0 1 45.78446,45.784461"
         style="opacity:0.9;fill:#3983ed;fill-opacity:1;stroke:#000000;stroke-width:0;stroke-miterlimit:4;stroke-dasharray:none"
         id="path921-7" />
      <g
         style="font-style:normal;font-variant:normal;font-weight:normal;font-stretch:normal;font-size:75.2951px;line-height:1.65;font-family:'Franklin Gothic Demi';-inkscape-font-specification:'Franklin Gothic Demi';letter-spacing:0px;word-spacing:0px;fill:#ffffff;stroke-width:0.784323"
         id="text1498-9-6"
         transform="rotate(48.696868)"
         aria-label="M">
        <path
           id="path2694"
           style="stroke-width:0.784323"
           d="m 268.68004,-97.767982 -12.3531,-40.919648 v 40.919648 h -9.85307 v -50.184478 h 18.30906 l 8.78688,30.03716 9.26482,-30.03716 h 18.34583 v 50.184478 h -11.83839 v -40.919648 l -12.61046,40.919648 z" />
      </g>
    </g>
    <path
       style="opacity:0.9;fill:#3983ed;fill-opacity:1;stroke:#000000;stroke-width:0"
       d="m 110.77308,166.0897 c -1.42782,-2.19483 -1.60111,-4.08165 -0.69221,-7.53791 0.41953,-1.59539 0.79692,-2.39507 2.44996,-5.19149 2.70827,-4.5814 5.89756,-8.27145 11.68866,-13.52358 1.3574,-1.23108 2.45188,-2.30029 2.43216,-2.37602 -0.0197,-0.0758 -1.16578,-1.19948 -2.5468,-2.49719 -7.96581,-7.48534 -13.29221,-15.05864 -14.06639,-20.00017 -0.38554,-2.4608 -0.14615,-4.08767 0.85797,-5.83113 1.1217,-1.94754 2.49502,-2.95915 5.11168,-3.76534 5.27363,-1.62477 13.88158,-0.67897 24.06012,2.64361 1.60125,0.52269 3.0435,0.92258 3.20502,0.88863 0.17636,-0.0371 0.59481,-1.36089 1.04734,-3.31332 1.70835,-7.370772 3.58274,-12.432066 6.33001,-17.092508 2.81369,-4.773078 4.83151,-6.56948 8.13885,-7.245723 2.60886,-0.533435 5.20564,0.384691 7.52662,2.661108 1.63588,1.604445 4.14484,5.672946 5.5553,9.008358 0.79191,1.872713 1.93786,5.525756 2.99762,9.555835 0.9436,3.58828 1.74965,6.54412 1.79124,6.5685 0.0416,0.0244 2.34791,-0.58203 5.1252,-1.34762 12.19901,-3.36285 20.35548,-3.5203 24.85073,-0.47972 3.15872,2.13655 4.08426,5.40169 2.81715,9.93845 -0.66044,2.36466 -3.85283,7.68734 -6.38541,10.64645 -2.31861,2.7091 -5.13735,5.56743 -8.03291,8.1457 -1.1695,1.04137 -2.08803,2.0066 -2.04117,2.14497 0.0469,0.13842 0.94032,1.03497 1.98547,1.99244 13.1593,12.05524 17.91578,22.77525 12.41323,27.97658 -4.2201,3.98911 -14.49858,3.74062 -28.28816,-0.68387 -1.54553,-0.49588 -2.85651,-0.88962 -2.91331,-0.87494 -0.0568,0.0146 -0.49427,1.65695 -0.97217,3.64948 -1.93885,8.08347 -3.26837,11.70753 -6.03556,16.45199 -2.22098,3.80802 -3.27143,5.05259 -5.44106,6.44679 -4.44652,2.85729 -9.3456,1.04568 -13.17027,-4.8702 -2.45654,-3.79968 -4.31787,-8.67475 -6.23938,-16.34159 l -1.37869,-5.50098 -4.45323,1.28917 c -11.79922,3.41576 -20.25554,3.69727 -25.13096,0.83661 -1.48566,-0.87171 -1.81918,-1.17626 -2.59665,-2.37137 z m 49.05171,-10.02485 c 1.27504,-0.33208 14.61665,-7.87257 15.51163,-8.76697 0.47877,-0.47846 0.76368,-5.75497 0.67372,-12.47752 -0.034,-2.54748 -0.0647,-4.95971 -0.0678,-5.36049 -0.006,-0.70169 -0.0949,-0.78759 -2.40573,-2.31591 -3.08814,-2.04246 -10.2841,-6.26179 -12.21758,-7.16347 l -1.49769,-0.69864 -1.73972,0.88409 c -2.83011,1.43817 -8.46966,4.63685 -11.47541,6.5087 l -2.79987,1.74363 -0.1241,2.79137 c -0.24093,5.41965 -0.16694,15.07191 0.12007,15.66068 0.0767,0.15743 3.60183,2.31972 7.83347,4.80498 6.58279,3.86638 7.7654,4.50005 8.18901,4.38973 z"
       id="path2486" />
    <path
       d="m 91.518725,164.7484 c -3.062518,-0.0353 -5.352371,0.83844 -6.325257,2.71979 -1.164203,2.25133 -1.022761,5.88279 0.333976,8.57084 0.721697,1.42987 4.673727,5.75414 10.711237,11.71686 14.721109,14.53875 26.075739,29.44389 32.423399,42.56263 6.41862,13.26545 7.21311,31.72601 7.42129,35.92001 0,0 -0.10692,6.02951 -0.87645,9.43438 -0.76954,3.40487 -2.63306,9.7665 -2.63306,9.7665 -4.25618,16.17682 -8.37183,25.01554 1.21781,25.96345 h 0.002 c 2.19579,0.21704 14.0374,0.21715 26.12582,0.0941 12.08843,0.12305 23.93003,0.12293 26.12582,-0.0941 h 0.002 c 9.58963,-0.94791 5.47399,-9.78663 1.21781,-25.96345 0,0 -1.86352,-6.36163 -2.63306,-9.7665 -0.76953,-3.40487 -0.87646,-9.43438 -0.87646,-9.43438 0.20818,-4.194 1.00267,-22.65456 7.4213,-35.92001 6.34766,-13.11874 17.70228,-28.02388 32.4234,-42.56263 6.03751,-5.96272 9.98953,-10.28699 10.71123,-11.71686 1.35674,-2.68805 1.49818,-6.31951 0.33397,-8.57084 -0.97288,-1.88135 -3.26272,-2.75521 -6.32525,-2.71979 -5.1042,0.059 -12.35223,2.64309 -19.21934,7.30136 -10.1692,6.89824 -29.23241,26.30397 -43.68081,44.46686 -2.94609,3.70348 -4.84449,5.71326 -5.50046,5.83997 -0.65597,-0.12671 -2.55438,-2.13649 -5.50047,-5.83997 -14.44838,-18.16289 -33.51159,-37.56862 -43.6808,-44.46686 -6.86711,-4.65827 -14.115144,-7.24238 -19.21934,-7.30136 z"
       style="opacity:0.9;fill:#3983ed;fill-opacity:0.901961;stroke:#000000;stroke-width:0;stroke-miterlimit:4;stroke-dasharray:none"
       id="path2503" />
  </g>
</svg>
