<?xml version="1.0" encoding="UTF-8"?>
<svg width="320" height="320" version="1.1" viewBox="0 0 320 320" xmlns="http://www.w3.org/2000/svg" xmlns:cc="http://creativecommons.org/ns#" xmlns:dc="http://purl.org/dc/elements/1.1/" xmlns:rdf="http://www.w3.org/1999/02/22-rdf-syntax-ns#">
 <metadata>
  <rdf:RDF>
   <cc:Work rdf:about="">
    <dc:format>image/svg+xml</dc:format>
    <dc:type rdf:resource="http://purl.org/dc/dcmitype/StillImage"/>
   </cc:Work>
  </rdf:RDF>
 </metadata>
 <path d="m94.917 126.52a43.254 43.254 0 0 1-43.254 43.254 43.254 43.254 0 0 1-43.254-43.254 43.254 43.254 0 0 1 43.254-43.254 43.254 43.254 0 0 1 43.254 43.254" fill="#3983ed" opacity=".9" stroke-width="0"/>
 <g transform="matrix(.58874 -.73885 .73885 .58874 7.8069 8.8925)" fill="#fff" stroke-width="1.137" aria-label="s">
  <path d="m-46.18 99.9-11.566 3.0912q-2.0253-7.3017-10.5-7.3017-7.9946 0-7.9946 4.8501 0 1.9187 1.439 3.0912 1.4923 1.1192 7.6748 1.9187 9.2204 1.2258 13.644 2.8248 4.4237 1.5989 6.982 5.383 2.6116 3.7841 2.6116 9.327 0 8.3144-6.3424 13.538-6.2891 5.2231-17.641 5.2231-20.573 0-24.57-15.936l13.378-1.972q1.6522 7.2484 11.939 7.2484 3.944 0 6.6622-1.3857 2.7182-1.439 2.7182-3.8374 0-3.7308-6.0226-4.4237-16.309-2.0253-21.479-6.2358-5.1165-4.2638-5.1165-11.832 0-7.6748 5.9693-12.685 5.9693-5.01 16.735-5.01 8.5276 0 13.644 3.3577 5.1165 3.3577 7.8347 10.766z" stroke-width="1.137"/>
 </g>
 <path d="m251.55 53.458a43.254 43.254 0 0 1-43.254 43.254 43.254 43.254 0 0 1-43.254-43.254 43.254 43.254 0 0 1 43.254-43.254 43.254 43.254 0 0 1 43.254 43.254" fill="#3983ed" opacity=".9" stroke-width="0"/>
 <path d="m235.39 47.167-22.123-12.707-5.4654 9.515 17.399 9.994-5.0167 8.7338-17.399-9.994-5.8171 10.127 22.123 12.707-5.2702 9.1751-33.167-19.051 26.644-46.386 33.167 19.051z" fill="#fff" stroke-width=".83605"/>
 <path d="m91.519 164.75c-3.0625-0.0353-5.3524 0.83844-6.3253 2.7198-1.1642 2.2513-1.0228 5.8828 0.33398 8.5708 0.7217 1.4299 4.6737 5.7541 10.711 11.717 14.721 14.539 26.076 29.444 32.423 42.563 6.4186 13.265 7.2131 31.726 7.4213 35.92 0 0-0.10692 6.0295-0.87645 9.4344-0.76954 3.4049-2.6331 9.7665-2.6331 9.7665-4.2562 16.177-8.3718 25.016 1.2178 25.963h2e-3c2.1958 0.21704 14.037 0.21715 26.126 0.0941 12.088 0.12305 23.93 0.12293 26.126-0.0941h2e-3c9.5896-0.94791 5.474-9.7866 1.2178-25.963 0 0-1.8635-6.3616-2.6331-9.7665-0.76953-3.4049-0.87646-9.4344-0.87646-9.4344 0.20818-4.194 1.0027-22.655 7.4213-35.92 6.3477-13.119 17.702-28.024 32.423-42.563 6.0375-5.9627 9.9895-10.287 10.711-11.717 1.3567-2.688 1.4982-6.3195 0.33397-8.5708-0.97288-1.8814-3.2627-2.7552-6.3252-2.7198-5.1042 0.059-12.352 2.6431-19.219 7.3014-10.169 6.8982-29.232 26.304-43.681 44.467-2.9461 3.7035-4.8445 5.7133-5.5005 5.84-0.65597-0.12671-2.5544-2.1365-5.5005-5.84-14.448-18.163-33.512-37.569-43.681-44.467-6.8671-4.6583-14.115-7.2424-19.219-7.3014z" fill="#3983ed" fill-opacity=".90196" opacity=".9" stroke-width="0"/>
 <path d="m154.88 53.203a43.254 43.254 0 0 1-43.254 43.254 43.254 43.254 0 0 1-43.254-43.254 43.254 43.254 0 0 1 43.254-43.254 43.254 43.254 0 0 1 43.254 43.254" fill="#3983ed" opacity=".9" stroke-width="0"/>
 <path d="m111.14 65.279c-5.5742-9.2393-10.246-16.806-10.382-16.814-0.13601-0.0087-3.0217 1.6788-6.4126 3.75s-6.3934 3.7855-6.6722 3.8095c-0.60349 0.05203-6.4853-9.215-6.0878-9.5915 0.98284-0.93116 38.476-23.405 38.689-23.191 0.63279 0.6325 5.8553 9.3867 5.7253 9.597-0.079 0.12774-3.0479 1.9781-6.5977 4.1119s-6.46 3.9777-6.4672 4.0976c-7e-3 0.11988 4.5587 7.7618 10.146 16.982 7.9293 13.084 10.052 16.861 9.6703 17.204-0.61129 0.54997-10.095 6.3139-10.891 6.6195-0.43723 0.16778-3.1544-4.0329-10.721-16.574z" fill="#fff" fill-rule="evenodd" stroke-width=".39072"/>
 <path d="m311.69 126.63a43.254 43.254 0 0 1-43.254 43.254 43.254 43.254 0 0 1-43.254-43.254 43.254 43.254 0 0 1 43.254-43.254 43.254 43.254 0 0 1 43.254 43.254" fill="#3983ed" opacity=".9" stroke-width="0"/>
 <g transform="matrix(.62356 .70971 -.70971 .62356 10.483 9.6571)" fill="#fff" stroke-width=".78432" aria-label="M">
  <path d="m268.68-97.768-12.353-40.92v40.92h-9.8531v-50.184h18.309l8.7869 30.037 9.2648-30.037h18.346v50.184h-11.838v-40.92l-12.61 40.92z" stroke-width=".78432"/>
 </g>
 <path d="m110.77 166.09c-1.4278-2.1948-1.6011-4.0816-0.69221-7.5379 0.41953-1.5954 0.79692-2.3951 2.45-5.1915 2.7083-4.5814 5.8976-8.2714 11.689-13.524 1.3574-1.2311 2.4519-2.3003 2.4322-2.376-0.0197-0.0758-1.1658-1.1995-2.5468-2.4972-7.9658-7.4853-13.292-15.059-14.066-20-0.38554-2.4608-0.14615-4.0877 0.85797-5.8311 1.1217-1.9475 2.495-2.9592 5.1117-3.7653 5.2736-1.6248 13.882-0.67897 24.06 2.6436 1.6012 0.52269 3.0435 0.92258 3.205 0.88863 0.17636-0.0371 0.59481-1.3609 1.0473-3.3133 1.7084-7.3708 3.5827-12.432 6.33-17.093 2.8137-4.7731 4.8315-6.5695 8.1388-7.2457 2.6089-0.53344 5.2056 0.38469 7.5266 2.6611 1.6359 1.6044 4.1448 5.6729 5.5553 9.0084 0.79191 1.8727 1.9379 5.5258 2.9976 9.5558 0.9436 3.5883 1.7496 6.5441 1.7912 6.5685s2.3479-0.58203 5.1252-1.3476c12.199-3.3628 20.355-3.5203 24.851-0.47972 3.1587 2.1366 4.0843 5.4017 2.8172 9.9384-0.66044 2.3647-3.8528 7.6873-6.3854 10.646-2.3186 2.7091-5.1374 5.5674-8.0329 8.1457-1.1695 1.0414-2.088 2.0066-2.0412 2.145 0.0469 0.13842 0.94032 1.035 1.9855 1.9924 13.159 12.055 17.916 22.775 12.413 27.977-4.2201 3.9891-14.499 3.7406-28.288-0.68387-1.5455-0.49588-2.8565-0.88962-2.9133-0.87494-0.0568 0.0146-0.49427 1.657-0.97217 3.6495-1.9388 8.0835-3.2684 11.708-6.0356 16.452-2.221 3.808-3.2714 5.0526-5.4411 6.4468-4.4465 2.8573-9.3456 1.0457-13.17-4.8702-2.4565-3.7997-4.3179-8.6748-6.2394-16.342l-1.3787-5.501-4.4532 1.2892c-11.799 3.4158-20.256 3.6973-25.131 0.83661-1.4857-0.87171-1.8192-1.1763-2.5966-2.3714zm49.052-10.025c1.275-0.33208 14.617-7.8726 15.512-8.767 0.47877-0.47846 0.76368-5.755 0.67372-12.478-0.034-2.5475-0.0647-4.9597-0.0678-5.3605-6e-3 -0.70169-0.0949-0.78759-2.4057-2.3159-3.0881-2.0425-10.284-6.2618-12.218-7.1635l-1.4977-0.69864-1.7397 0.88409c-2.8301 1.4382-8.4697 4.6368-11.475 6.5087l-2.7999 1.7436-0.1241 2.7914c-0.24093 5.4196-0.16694 15.072 0.12007 15.661 0.0767 0.15743 3.6018 2.3197 7.8335 4.805 6.5828 3.8664 7.7654 4.5 8.189 4.3897z" fill="#3983ed" opacity=".9" stroke-width="0"/>
 <path d="m159.82 119.28-1.7402 0.88477c-2.8301 1.4382-8.4693 4.6359-11.475 6.5078l-2.7988 1.7441-0.125 2.791c-0.24093 5.4196-0.16592 15.073 0.12109 15.662 0.0767 0.15743 3.6003 2.3194 7.832 4.8047 6.5828 3.8664 7.7659 4.499 8.1895 4.3887 1.275-0.33208 14.617-7.8712 15.512-8.7656 0.47877-0.47846 0.76379-5.7555 0.67383-12.479-0.034-2.5475-0.0653-4.9605-0.0684-5.3613-6e-3 -0.70169-0.0935-0.78614-2.4043-2.3144-3.0881-2.0425-10.285-6.2624-12.219-7.1641z" fill="#fff" fill-rule="evenodd" stroke-width="1.039"/>
</svg>
